<svg xmlns="http://www.w3.org/2000/svg" viewBox="0 0 1200 1200"><defs><style>.cls-1{fill:#0d2331;}.cls-2{fill:#f2ede4;}.cls-3{fill:#c21d57;}</style></defs><title>Middel 1</title><g id="Laag_2" data-name="Laag 2"><g id="Back"><polygon class="cls-1" points="600 0 600 100 650 0 600 0"/><polygon class="cls-2" points="600 100 650 100 650 0 600 100"/><polygon class="cls-1" points="700 0 700 100 650 0 700 0"/><polygon class="cls-3" points="700 100 650 100 650 0 700 100"/><polygon class="cls-1" points="700 200 700 100 650 200 700 200"/><polygon class="cls-2" points="700 100 650 100 650 200 700 100"/><polygon class="cls-2" points="600 200 600 100 650 200 600 200"/><polygon class="cls-1" points="600 100 650 100 650 200 600 100"/><polygon class="cls-1" points="700 0 700 100 750 0 700 0"/><polygon class="cls-3" points="700 100 750 100 750 0 700 100"/><polygon class="cls-2" points="800 0 800 100 750 0 800 0"/><polygon class="cls-1" points="800 100 750 100 750 0 800 100"/><polygon class="cls-3" points="800 200 800 100 750 200 800 200"/><polygon class="cls-3" points="800 100 750 100 750 200 800 100"/><polygon class="cls-2" points="700 200 700 100 750 200 700 200"/><polygon class="cls-1" points="700 100 750 100 750 200 700 100"/><polygon class="cls-1" points="800 0 800 100 850 0 800 0"/><polygon class="cls-1" points="800 100 850 100 850 0 800 100"/><polygon class="cls-2" points="900 0 900 100 850 0 900 0"/><polygon class="cls-3" points="900 100 850 100 850 0 900 100"/><polygon class="cls-2" points="900 200 900 100 850 200 900 200"/><polygon class="cls-3" points="900 100 850 100 850 200 900 100"/><polygon class="cls-2" points="800 200 800 100 850 200 800 200"/><polygon class="cls-1" points="800 100 850 100 850 200 800 100"/><polygon class="cls-2" points="900 0 900 100 950 0 900 0"/><polygon class="cls-1" points="900 100 950 100 950 0 900 100"/><polygon class="cls-3" points="1000 0 1000 100 950 0 1000 0"/><polygon class="cls-3" points="1000 100 950 100 950 0 1000 100"/><polygon class="cls-3" points="1000 200 1000 100 950 200 1000 200"/><polygon class="cls-1" points="1000 100 950 100 950 200 1000 100"/><polygon class="cls-1" points="900 200 900 100 950 200 900 200"/><polygon class="cls-2" points="900 100 950 100 950 200 900 100"/><polygon class="cls-2" points="1000 0 1000 100 1050 0 1000 0"/><polygon class="cls-3" points="1000 100 1050 100 1050 0 1000 100"/><polygon class="cls-3" points="1100 0 1100 100 1050 0 1100 0"/><polygon class="cls-1" points="1100 100 1050 100 1050 0 1100 100"/><polygon class="cls-1" points="1100 200 1100 100 1050 200 1100 200"/><polygon class="cls-3" points="1100 100 1050 100 1050 200 1100 100"/><polygon class="cls-1" points="1000 200 1000 100 1050 200 1000 200"/><polygon class="cls-2" points="1000 100 1050 100 1050 200 1000 100"/><polygon class="cls-1" points="1100 0 1100 100 1150 0 1100 0"/><polygon class="cls-3" points="1100 100 1150 100 1150 0 1100 100"/><polygon class="cls-1" points="1200 0 1200 100 1150 0 1200 0"/><polygon class="cls-2" points="1200 100 1150 100 1150 0 1200 100"/><polygon class="cls-3" points="1200 200 1200 100 1150 200 1200 200"/><polygon class="cls-1" points="1200 100 1150 100 1150 200 1200 100"/><polygon class="cls-2" points="1100 200 1100 100 1150 200 1100 200"/><polygon class="cls-1" points="1100 100 1150 100 1150 200 1100 100"/><polygon class="cls-3" points="600 200 600 300 650 200 600 200"/><polygon class="cls-1" points="600 300 650 300 650 200 600 300"/><polygon class="cls-2" points="700 200 700 300 650 200 700 200"/><polygon class="cls-2" points="700 300 650 300 650 200 700 300"/><polygon class="cls-2" points="700 400 700 300 650 400 700 400"/><polygon class="cls-1" points="700 300 650 300 650 400 700 300"/><polygon class="cls-1" points="600 400 600 300 650 400 600 400"/><polygon class="cls-3" points="600 300 650 300 650 400 600 300"/><polygon class="cls-3" points="700 200 700 300 750 200 700 200"/><polygon class="cls-2" points="700 300 750 300 750 200 700 300"/><polygon class="cls-2" points="800 200 800 300 750 200 800 200"/><polygon class="cls-1" points="800 300 750 300 750 200 800 300"/><polygon class="cls-1" points="800 400 800 300 750 400 800 400"/><polygon class="cls-3" points="800 300 750 300 750 400 800 300"/><polygon class="cls-3" points="700 400 700 300 750 400 700 400"/><polygon class="cls-1" points="700 300 750 300 750 400 700 300"/><polygon class="cls-1" points="800 200 800 300 850 200 800 200"/><polygon class="cls-3" points="800 300 850 300 850 200 800 300"/><polygon class="cls-2" points="900 200 900 300 850 200 900 200"/><polygon class="cls-3" points="900 300 850 300 850 200 900 300"/><polygon class="cls-1" points="900 400 900 300 850 400 900 400"/><polygon class="cls-3" points="900 300 850 300 850 400 900 300"/><polygon class="cls-1" points="800 400 800 300 850 400 800 400"/><polygon class="cls-2" points="800 300 850 300 850 400 800 300"/><polygon class="cls-3" points="900 200 900 300 950 200 900 200"/><polygon class="cls-1" points="900 300 950 300 950 200 900 300"/><polygon class="cls-2" points="1000 200 1000 300 950 200 1000 200"/><polygon class="cls-3" points="1000 300 950 300 950 200 1000 300"/><polygon class="cls-1" points="1000 400 1000 300 950 400 1000 400"/><polygon class="cls-2" points="1000 300 950 300 950 400 1000 300"/><polygon class="cls-2" points="900 400 900 300 950 400 900 400"/><polygon class="cls-3" points="900 300 950 300 950 400 900 300"/><polygon class="cls-1" points="1000 200 1000 300 1050 200 1000 200"/><polygon class="cls-2" points="1000 300 1050 300 1050 200 1000 300"/><polygon class="cls-3" points="1100 200 1100 300 1050 200 1100 200"/><polygon class="cls-1" points="1100 300 1050 300 1050 200 1100 300"/><polygon class="cls-3" points="1100 400 1100 300 1050 400 1100 400"/><polygon class="cls-1" points="1100 300 1050 300 1050 400 1100 300"/><polygon class="cls-1" points="1000 400 1000 300 1050 400 1000 400"/><polygon class="cls-3" points="1000 300 1050 300 1050 400 1000 300"/><polygon class="cls-2" points="1100 200 1100 300 1150 200 1100 200"/><polygon class="cls-1" points="1100 300 1150 300 1150 200 1100 300"/><polygon class="cls-2" points="1200 200 1200 300 1150 200 1200 200"/><polygon class="cls-1" points="1200 300 1150 300 1150 200 1200 300"/><polygon class="cls-2" points="1200 400 1200 300 1150 400 1200 400"/><polygon class="cls-2" points="1200 300 1150 300 1150 400 1200 300"/><polygon class="cls-2" points="1100 400 1100 300 1150 400 1100 400"/><polygon class="cls-3" points="1100 300 1150 300 1150 400 1100 300"/><polygon class="cls-1" points="600 400 600 500 650 400 600 400"/><polygon class="cls-3" points="600 500 650 500 650 400 600 500"/><polygon class="cls-1" points="700 400 700 500 650 400 700 400"/><polygon class="cls-2" points="700 500 650 500 650 400 700 500"/><polygon class="cls-3" points="700 600 700 500 650 600 700 600"/><polygon class="cls-1" points="700 500 650 500 650 600 700 500"/><polygon class="cls-3" points="600 600 600 500 650 600 600 600"/><polygon class="cls-2" points="600 500 650 500 650 600 600 500"/><polygon class="cls-3" points="700 400 700 500 750 400 700 400"/><polygon class="cls-1" points="700 500 750 500 750 400 700 500"/><polygon class="cls-2" points="800 400 800 500 750 400 800 400"/><polygon class="cls-2" points="800 500 750 500 750 400 800 500"/><polygon class="cls-1" points="800 600 800 500 750 600 800 600"/><polygon class="cls-3" points="800 500 750 500 750 600 800 500"/><polygon class="cls-1" points="700 600 700 500 750 600 700 600"/><polygon class="cls-2" points="700 500 750 500 750 600 700 500"/><polygon class="cls-2" points="800 400 800 500 850 400 800 400"/><polygon class="cls-1" points="800 500 850 500 850 400 800 500"/><polygon class="cls-2" points="900 400 900 500 850 400 900 400"/><polygon class="cls-3" points="900 500 850 500 850 400 900 500"/><polygon class="cls-2" points="900 600 900 500 850 600 900 600"/><polygon class="cls-3" points="900 500 850 500 850 600 900 500"/><polygon class="cls-3" points="800 600 800 500 850 600 800 600"/><polygon class="cls-1" points="800 500 850 500 850 600 800 500"/><polygon class="cls-1" points="900 400 900 500 950 400 900 400"/><polygon class="cls-1" points="900 500 950 500 950 400 900 500"/><polygon class="cls-3" points="1000 400 1000 500 950 400 1000 400"/><polygon class="cls-2" points="1000 500 950 500 950 400 1000 500"/><polygon class="cls-1" points="1000 600 1000 500 950 600 1000 600"/><polygon class="cls-1" points="1000 500 950 500 950 600 1000 500"/><polygon class="cls-1" points="900 600 900 500 950 600 900 600"/><polygon class="cls-3" points="900 500 950 500 950 600 900 500"/><polygon class="cls-1" points="1000 400 1000 500 1050 400 1000 400"/><polygon class="cls-2" points="1000 500 1050 500 1050 400 1000 500"/><polygon class="cls-3" points="1100 400 1100 500 1050 400 1100 400"/><polygon class="cls-1" points="1100 500 1050 500 1050 400 1100 500"/><polygon class="cls-1" points="1100 600 1100 500 1050 600 1100 600"/><polygon class="cls-2" points="1100 500 1050 500 1050 600 1100 500"/><polygon class="cls-3" points="1000 600 1000 500 1050 600 1000 600"/><polygon class="cls-1" points="1000 500 1050 500 1050 600 1000 500"/><polygon class="cls-1" points="1100 400 1100 500 1150 400 1100 400"/><polygon class="cls-2" points="1100 500 1150 500 1150 400 1100 500"/><polygon class="cls-1" points="1200 400 1200 500 1150 400 1200 400"/><polygon class="cls-1" points="1200 500 1150 500 1150 400 1200 500"/><polygon class="cls-3" points="1200 600 1200 500 1150 600 1200 600"/><polygon class="cls-2" points="1200 500 1150 500 1150 600 1200 500"/><polygon class="cls-3" points="1100 600 1100 500 1150 600 1100 600"/><polygon class="cls-1" points="1100 500 1150 500 1150 600 1100 500"/><polygon class="cls-1" points="0 0 0 100 50 0 0 0"/><polygon class="cls-2" points="0 100 50 100 50 0 0 100"/><polygon class="cls-1" points="100 0 100 100 50 0 100 0"/><polygon class="cls-3" points="100 100 50 100 50 0 100 100"/><polygon class="cls-1" points="100 200 100 100 50 200 100 200"/><polygon class="cls-2" points="100 100 50 100 50 200 100 100"/><polygon class="cls-2" points="0 200 0 100 50 200 0 200"/><polygon class="cls-1" points="0 100 50 100 50 200 0 100"/><polygon class="cls-1" points="100 0 100 100 150 0 100 0"/><polygon class="cls-3" points="100 100 150 100 150 0 100 100"/><polygon class="cls-2" points="200 0 200 100 150 0 200 0"/><polygon class="cls-1" points="200 100 150 100 150 0 200 100"/><polygon class="cls-3" points="200 200 200 100 150 200 200 200"/><polygon class="cls-3" points="200 100 150 100 150 200 200 100"/><polygon class="cls-2" points="100 200 100 100 150 200 100 200"/><polygon class="cls-1" points="100 100 150 100 150 200 100 100"/><polygon class="cls-1" points="200 0 200 100 250 0 200 0"/><polygon class="cls-1" points="200 100 250 100 250 0 200 100"/><polygon class="cls-2" points="300 0 300 100 250 0 300 0"/><polygon class="cls-3" points="300 100 250 100 250 0 300 100"/><polygon class="cls-2" points="300 200 300 100 250 200 300 200"/><polygon class="cls-3" points="300 100 250 100 250 200 300 100"/><polygon class="cls-2" points="200 200 200 100 250 200 200 200"/><polygon class="cls-1" points="200 100 250 100 250 200 200 100"/><polygon class="cls-2" points="300 0 300 100 350 0 300 0"/><polygon class="cls-1" points="300 100 350 100 350 0 300 100"/><polygon class="cls-3" points="400 0 400 100 350 0 400 0"/><polygon class="cls-3" points="400 100 350 100 350 0 400 100"/><polygon class="cls-3" points="400 200 400 100 350 200 400 200"/><polygon class="cls-1" points="400 100 350 100 350 200 400 100"/><polygon class="cls-1" points="300 200 300 100 350 200 300 200"/><polygon class="cls-2" points="300 100 350 100 350 200 300 100"/><polygon class="cls-2" points="400 0 400 100 450 0 400 0"/><polygon class="cls-3" points="400 100 450 100 450 0 400 100"/><polygon class="cls-3" points="500 0 500 100 450 0 500 0"/><polygon class="cls-1" points="500 100 450 100 450 0 500 100"/><polygon class="cls-1" points="500 200 500 100 450 200 500 200"/><polygon class="cls-3" points="500 100 450 100 450 200 500 100"/><polygon class="cls-1" points="400 200 400 100 450 200 400 200"/><polygon class="cls-2" points="400 100 450 100 450 200 400 100"/><polygon class="cls-1" points="500 0 500 100 550 0 500 0"/><polygon class="cls-3" points="500 100 550 100 550 0 500 100"/><polygon class="cls-1" points="600 0 600 100 550 0 600 0"/><polygon class="cls-2" points="600 100 550 100 550 0 600 100"/><polygon class="cls-3" points="600 200 600 100 550 200 600 200"/><polygon class="cls-1" points="600 100 550 100 550 200 600 100"/><polygon class="cls-2" points="500 200 500 100 550 200 500 200"/><polygon class="cls-1" points="500 100 550 100 550 200 500 100"/><polygon class="cls-3" points="0 200 0 300 50 200 0 200"/><polygon class="cls-1" points="0 300 50 300 50 200 0 300"/><polygon class="cls-2" points="100 200 100 300 50 200 100 200"/><polygon class="cls-2" points="100 300 50 300 50 200 100 300"/><polygon class="cls-2" points="100 400 100 300 50 400 100 400"/><polygon class="cls-1" points="100 300 50 300 50 400 100 300"/><polygon class="cls-1" points="0 400 0 300 50 400 0 400"/><polygon class="cls-3" points="0 300 50 300 50 400 0 300"/><polygon class="cls-3" points="100 200 100 300 150 200 100 200"/><polygon class="cls-2" points="100 300 150 300 150 200 100 300"/><polygon class="cls-2" points="200 200 200 300 150 200 200 200"/><polygon class="cls-1" points="200 300 150 300 150 200 200 300"/><polygon class="cls-1" points="200 400 200 300 150 400 200 400"/><polygon class="cls-3" points="200 300 150 300 150 400 200 300"/><polygon class="cls-3" points="100 400 100 300 150 400 100 400"/><polygon class="cls-1" points="100 300 150 300 150 400 100 300"/><polygon class="cls-1" points="200 200 200 300 250 200 200 200"/><polygon class="cls-3" points="200 300 250 300 250 200 200 300"/><polygon class="cls-2" points="300 200 300 300 250 200 300 200"/><polygon class="cls-3" points="300 300 250 300 250 200 300 300"/><polygon class="cls-1" points="300 400 300 300 250 400 300 400"/><polygon class="cls-3" points="300 300 250 300 250 400 300 300"/><polygon class="cls-1" points="200 400 200 300 250 400 200 400"/><polygon class="cls-2" points="200 300 250 300 250 400 200 300"/><polygon class="cls-3" points="300 200 300 300 350 200 300 200"/><polygon class="cls-1" points="300 300 350 300 350 200 300 300"/><polygon class="cls-2" points="400 200 400 300 350 200 400 200"/><polygon class="cls-3" points="400 300 350 300 350 200 400 300"/><polygon class="cls-1" points="400 400 400 300 350 400 400 400"/><polygon class="cls-2" points="400 300 350 300 350 400 400 300"/><polygon class="cls-2" points="300 400 300 300 350 400 300 400"/><polygon class="cls-3" points="300 300 350 300 350 400 300 300"/><polygon class="cls-1" points="400 200 400 300 450 200 400 200"/><polygon class="cls-2" points="400 300 450 300 450 200 400 300"/><polygon class="cls-3" points="500 200 500 300 450 200 500 200"/><polygon class="cls-1" points="500 300 450 300 450 200 500 300"/><polygon class="cls-3" points="500 400 500 300 450 400 500 400"/><polygon class="cls-1" points="500 300 450 300 450 400 500 300"/><polygon class="cls-1" points="400 400 400 300 450 400 400 400"/><polygon class="cls-3" points="400 300 450 300 450 400 400 300"/><polygon class="cls-2" points="500 200 500 300 550 200 500 200"/><polygon class="cls-1" points="500 300 550 300 550 200 500 300"/><polygon class="cls-2" points="600 200 600 300 550 200 600 200"/><polygon class="cls-1" points="600 300 550 300 550 200 600 300"/><polygon class="cls-2" points="600 400 600 300 550 400 600 400"/><polygon class="cls-2" points="600 300 550 300 550 400 600 300"/><polygon class="cls-2" points="500 400 500 300 550 400 500 400"/><polygon class="cls-3" points="500 300 550 300 550 400 500 300"/><polygon class="cls-1" points="0 400 0 500 50 400 0 400"/><polygon class="cls-3" points="0 500 50 500 50 400 0 500"/><polygon class="cls-1" points="100 400 100 500 50 400 100 400"/><polygon class="cls-2" points="100 500 50 500 50 400 100 500"/><polygon class="cls-3" points="100 600 100 500 50 600 100 600"/><polygon class="cls-1" points="100 500 50 500 50 600 100 500"/><polygon class="cls-3" points="0 600 0 500 50 600 0 600"/><polygon class="cls-2" points="0 500 50 500 50 600 0 500"/><polygon class="cls-3" points="100 400 100 500 150 400 100 400"/><polygon class="cls-1" points="100 500 150 500 150 400 100 500"/><polygon class="cls-2" points="200 400 200 500 150 400 200 400"/><polygon class="cls-2" points="200 500 150 500 150 400 200 500"/><polygon class="cls-1" points="200 600 200 500 150 600 200 600"/><polygon class="cls-3" points="200 500 150 500 150 600 200 500"/><polygon class="cls-1" points="100 600 100 500 150 600 100 600"/><polygon class="cls-2" points="100 500 150 500 150 600 100 500"/><polygon class="cls-2" points="200 400 200 500 250 400 200 400"/><polygon class="cls-1" points="200 500 250 500 250 400 200 500"/><polygon class="cls-2" points="300 400 300 500 250 400 300 400"/><polygon class="cls-3" points="300 500 250 500 250 400 300 500"/><polygon class="cls-2" points="300 600 300 500 250 600 300 600"/><polygon class="cls-3" points="300 500 250 500 250 600 300 500"/><polygon class="cls-3" points="200 600 200 500 250 600 200 600"/><polygon class="cls-1" points="200 500 250 500 250 600 200 500"/><polygon class="cls-1" points="300 400 300 500 350 400 300 400"/><polygon class="cls-1" points="300 500 350 500 350 400 300 500"/><polygon class="cls-3" points="400 400 400 500 350 400 400 400"/><polygon class="cls-2" points="400 500 350 500 350 400 400 500"/><polygon class="cls-1" points="400 600 400 500 350 600 400 600"/><polygon class="cls-1" points="400 500 350 500 350 600 400 500"/><polygon class="cls-1" points="300 600 300 500 350 600 300 600"/><polygon class="cls-3" points="300 500 350 500 350 600 300 500"/><polygon class="cls-1" points="400 400 400 500 450 400 400 400"/><polygon class="cls-2" points="400 500 450 500 450 400 400 500"/><polygon class="cls-3" points="500 400 500 500 450 400 500 400"/><polygon class="cls-1" points="500 500 450 500 450 400 500 500"/><polygon class="cls-1" points="500 600 500 500 450 600 500 600"/><polygon class="cls-2" points="500 500 450 500 450 600 500 500"/><polygon class="cls-3" points="400 600 400 500 450 600 400 600"/><polygon class="cls-1" points="400 500 450 500 450 600 400 500"/><polygon class="cls-1" points="500 400 500 500 550 400 500 400"/><polygon class="cls-2" points="500 500 550 500 550 400 500 500"/><polygon class="cls-1" points="600 400 600 500 550 400 600 400"/><polygon class="cls-1" points="600 500 550 500 550 400 600 500"/><polygon class="cls-3" points="600 600 600 500 550 600 600 600"/><polygon class="cls-2" points="600 500 550 500 550 600 600 500"/><polygon class="cls-3" points="500 600 500 500 550 600 500 600"/><polygon class="cls-1" points="500 500 550 500 550 600 500 500"/><polygon class="cls-1" points="600 600 600 700 650 600 600 600"/><polygon class="cls-2" points="600 700 650 700 650 600 600 700"/><polygon class="cls-1" points="700 600 700 700 650 600 700 600"/><polygon class="cls-3" points="700 700 650 700 650 600 700 700"/><polygon class="cls-1" points="700 800 700 700 650 800 700 800"/><polygon class="cls-2" points="700 700 650 700 650 800 700 700"/><polygon class="cls-2" points="600 800 600 700 650 800 600 800"/><polygon class="cls-1" points="600 700 650 700 650 800 600 700"/><polygon class="cls-1" points="700 600 700 700 750 600 700 600"/><polygon class="cls-3" points="700 700 750 700 750 600 700 700"/><polygon class="cls-2" points="800 600 800 700 750 600 800 600"/><polygon class="cls-1" points="800 700 750 700 750 600 800 700"/><polygon class="cls-3" points="800 800 800 700 750 800 800 800"/><polygon class="cls-3" points="800 700 750 700 750 800 800 700"/><polygon class="cls-2" points="700 800 700 700 750 800 700 800"/><polygon class="cls-1" points="700 700 750 700 750 800 700 700"/><polygon class="cls-1" points="800 600 800 700 850 600 800 600"/><polygon class="cls-1" points="800 700 850 700 850 600 800 700"/><polygon class="cls-2" points="900 600 900 700 850 600 900 600"/><polygon class="cls-3" points="900 700 850 700 850 600 900 700"/><polygon class="cls-2" points="900 800 900 700 850 800 900 800"/><polygon class="cls-3" points="900 700 850 700 850 800 900 700"/><polygon class="cls-2" points="800 800 800 700 850 800 800 800"/><polygon class="cls-1" points="800 700 850 700 850 800 800 700"/><polygon class="cls-2" points="900 600 900 700 950 600 900 600"/><polygon class="cls-1" points="900 700 950 700 950 600 900 700"/><polygon class="cls-3" points="1000 600 1000 700 950 600 1000 600"/><polygon class="cls-3" points="1000 700 950 700 950 600 1000 700"/><polygon class="cls-3" points="1000 800 1000 700 950 800 1000 800"/><polygon class="cls-1" points="1000 700 950 700 950 800 1000 700"/><polygon class="cls-1" points="900 800 900 700 950 800 900 800"/><polygon class="cls-2" points="900 700 950 700 950 800 900 700"/><polygon class="cls-2" points="1000 600 1000 700 1050 600 1000 600"/><polygon class="cls-3" points="1000 700 1050 700 1050 600 1000 700"/><polygon class="cls-3" points="1100 600 1100 700 1050 600 1100 600"/><polygon class="cls-1" points="1100 700 1050 700 1050 600 1100 700"/><polygon class="cls-1" points="1100 800 1100 700 1050 800 1100 800"/><polygon class="cls-3" points="1100 700 1050 700 1050 800 1100 700"/><polygon class="cls-1" points="1000 800 1000 700 1050 800 1000 800"/><polygon class="cls-2" points="1000 700 1050 700 1050 800 1000 700"/><polygon class="cls-1" points="1100 600 1100 700 1150 600 1100 600"/><polygon class="cls-3" points="1100 700 1150 700 1150 600 1100 700"/><polygon class="cls-1" points="1200 600 1200 700 1150 600 1200 600"/><polygon class="cls-2" points="1200 700 1150 700 1150 600 1200 700"/><polygon class="cls-3" points="1200 800 1200 700 1150 800 1200 800"/><polygon class="cls-1" points="1200 700 1150 700 1150 800 1200 700"/><polygon class="cls-2" points="1100 800 1100 700 1150 800 1100 800"/><polygon class="cls-1" points="1100 700 1150 700 1150 800 1100 700"/><polygon class="cls-3" points="600 800 600 900 650 800 600 800"/><polygon class="cls-1" points="600 900 650 900 650 800 600 900"/><polygon class="cls-2" points="700 800 700 900 650 800 700 800"/><polygon class="cls-2" points="700 900 650 900 650 800 700 900"/><polygon class="cls-2" points="700 1000 700 900 650 1000 700 1000"/><polygon class="cls-1" points="700 900 650 900 650 1000 700 900"/><polygon class="cls-1" points="600 1000 600 900 650 1000 600 1000"/><polygon class="cls-3" points="600 900 650 900 650 1000 600 900"/><polygon class="cls-3" points="700 800 700 900 750 800 700 800"/><polygon class="cls-2" points="700 900 750 900 750 800 700 900"/><polygon class="cls-2" points="800 800 800 900 750 800 800 800"/><polygon class="cls-1" points="800 900 750 900 750 800 800 900"/><polygon class="cls-1" points="800 1000 800 900 750 1000 800 1000"/><polygon class="cls-3" points="800 900 750 900 750 1000 800 900"/><polygon class="cls-3" points="700 1000 700 900 750 1000 700 1000"/><polygon class="cls-1" points="700 900 750 900 750 1000 700 900"/><polygon class="cls-1" points="800 800 800 900 850 800 800 800"/><polygon class="cls-3" points="800 900 850 900 850 800 800 900"/><polygon class="cls-2" points="900 800 900 900 850 800 900 800"/><polygon class="cls-3" points="900 900 850 900 850 800 900 900"/><polygon class="cls-1" points="900 1000 900 900 850 1000 900 1000"/><polygon class="cls-3" points="900 900 850 900 850 1000 900 900"/><polygon class="cls-1" points="800 1000 800 900 850 1000 800 1000"/><polygon class="cls-2" points="800 900 850 900 850 1000 800 900"/><polygon class="cls-3" points="900 800 900 900 950 800 900 800"/><polygon class="cls-1" points="900 900 950 900 950 800 900 900"/><polygon class="cls-2" points="1000 800 1000 900 950 800 1000 800"/><polygon class="cls-3" points="1000 900 950 900 950 800 1000 900"/><polygon class="cls-1" points="1000 1000 1000 900 950 1000 1000 1000"/><polygon class="cls-2" points="1000 900 950 900 950 1000 1000 900"/><polygon class="cls-2" points="900 1000 900 900 950 1000 900 1000"/><polygon class="cls-3" points="900 900 950 900 950 1000 900 900"/><polygon class="cls-1" points="1000 800 1000 900 1050 800 1000 800"/><polygon class="cls-2" points="1000 900 1050 900 1050 800 1000 900"/><polygon class="cls-3" points="1100 800 1100 900 1050 800 1100 800"/><polygon class="cls-1" points="1100 900 1050 900 1050 800 1100 900"/><polygon class="cls-3" points="1100 1000 1100 900 1050 1000 1100 1000"/><polygon class="cls-1" points="1100 900 1050 900 1050 1000 1100 900"/><polygon class="cls-1" points="1000 1000 1000 900 1050 1000 1000 1000"/><polygon class="cls-3" points="1000 900 1050 900 1050 1000 1000 900"/><polygon class="cls-2" points="1100 800 1100 900 1150 800 1100 800"/><polygon class="cls-1" points="1100 900 1150 900 1150 800 1100 900"/><polygon class="cls-2" points="1200 800 1200 900 1150 800 1200 800"/><polygon class="cls-1" points="1200 900 1150 900 1150 800 1200 900"/><polygon class="cls-2" points="1200 1000 1200 900 1150 1000 1200 1000"/><polygon class="cls-2" points="1200 900 1150 900 1150 1000 1200 900"/><polygon class="cls-2" points="1100 1000 1100 900 1150 1000 1100 1000"/><polygon class="cls-3" points="1100 900 1150 900 1150 1000 1100 900"/><polygon class="cls-1" points="600 1000 600 1100 650 1000 600 1000"/><polygon class="cls-3" points="600 1100 650 1100 650 1000 600 1100"/><polygon class="cls-1" points="700 1000 700 1100 650 1000 700 1000"/><polygon class="cls-2" points="700 1100 650 1100 650 1000 700 1100"/><polygon class="cls-3" points="700 1200 700 1100 650 1200 700 1200"/><polygon class="cls-1" points="700 1100 650 1100 650 1200 700 1100"/><polygon class="cls-3" points="600 1200 600 1100 650 1200 600 1200"/><polygon class="cls-2" points="600 1100 650 1100 650 1200 600 1100"/><polygon class="cls-3" points="700 1000 700 1100 750 1000 700 1000"/><polygon class="cls-1" points="700 1100 750 1100 750 1000 700 1100"/><polygon class="cls-2" points="800 1000 800 1100 750 1000 800 1000"/><polygon class="cls-2" points="800 1100 750 1100 750 1000 800 1100"/><polygon class="cls-1" points="800 1200 800 1100 750 1200 800 1200"/><polygon class="cls-3" points="800 1100 750 1100 750 1200 800 1100"/><polygon class="cls-1" points="700 1200 700 1100 750 1200 700 1200"/><polygon class="cls-2" points="700 1100 750 1100 750 1200 700 1100"/><polygon class="cls-2" points="800 1000 800 1100 850 1000 800 1000"/><polygon class="cls-1" points="800 1100 850 1100 850 1000 800 1100"/><polygon class="cls-2" points="900 1000 900 1100 850 1000 900 1000"/><polygon class="cls-3" points="900 1100 850 1100 850 1000 900 1100"/><polygon class="cls-2" points="900 1200 900 1100 850 1200 900 1200"/><polygon class="cls-3" points="900 1100 850 1100 850 1200 900 1100"/><polygon class="cls-3" points="800 1200 800 1100 850 1200 800 1200"/><polygon class="cls-1" points="800 1100 850 1100 850 1200 800 1100"/><polygon class="cls-1" points="900 1000 900 1100 950 1000 900 1000"/><polygon class="cls-1" points="900 1100 950 1100 950 1000 900 1100"/><polygon class="cls-3" points="1000 1000 1000 1100 950 1000 1000 1000"/><polygon class="cls-2" points="1000 1100 950 1100 950 1000 1000 1100"/><polygon class="cls-1" points="1000 1200 1000 1100 950 1200 1000 1200"/><polygon class="cls-1" points="1000 1100 950 1100 950 1200 1000 1100"/><polygon class="cls-1" points="900 1200 900 1100 950 1200 900 1200"/><polygon class="cls-3" points="900 1100 950 1100 950 1200 900 1100"/><polygon class="cls-1" points="1000 1000 1000 1100 1050 1000 1000 1000"/><polygon class="cls-2" points="1000 1100 1050 1100 1050 1000 1000 1100"/><polygon class="cls-3" points="1100 1000 1100 1100 1050 1000 1100 1000"/><polygon class="cls-1" points="1100 1100 1050 1100 1050 1000 1100 1100"/><polygon class="cls-1" points="1100 1200 1100 1100 1050 1200 1100 1200"/><polygon class="cls-2" points="1100 1100 1050 1100 1050 1200 1100 1100"/><polygon class="cls-3" points="1000 1200 1000 1100 1050 1200 1000 1200"/><polygon class="cls-1" points="1000 1100 1050 1100 1050 1200 1000 1100"/><polygon class="cls-1" points="1100 1000 1100 1100 1150 1000 1100 1000"/><polygon class="cls-2" points="1100 1100 1150 1100 1150 1000 1100 1100"/><polygon class="cls-1" points="1200 1000 1200 1100 1150 1000 1200 1000"/><polygon class="cls-1" points="1200 1100 1150 1100 1150 1000 1200 1100"/><polygon class="cls-3" points="1200 1200 1200 1100 1150 1200 1200 1200"/><polygon class="cls-2" points="1200 1100 1150 1100 1150 1200 1200 1100"/><polygon class="cls-3" points="1100 1200 1100 1100 1150 1200 1100 1200"/><polygon class="cls-1" points="1100 1100 1150 1100 1150 1200 1100 1100"/><polygon class="cls-1" points="0 600 0 700 50 600 0 600"/><polygon class="cls-2" points="0 700 50 700 50 600 0 700"/><polygon class="cls-1" points="100 600 100 700 50 600 100 600"/><polygon class="cls-3" points="100 700 50 700 50 600 100 700"/><polygon class="cls-1" points="100 800 100 700 50 800 100 800"/><polygon class="cls-2" points="100 700 50 700 50 800 100 700"/><polygon class="cls-2" points="0 800 0 700 50 800 0 800"/><polygon class="cls-1" points="0 700 50 700 50 800 0 700"/><polygon class="cls-1" points="100 600 100 700 150 600 100 600"/><polygon class="cls-3" points="100 700 150 700 150 600 100 700"/><polygon class="cls-2" points="200 600 200 700 150 600 200 600"/><polygon class="cls-1" points="200 700 150 700 150 600 200 700"/><polygon class="cls-3" points="200 800 200 700 150 800 200 800"/><polygon class="cls-3" points="200 700 150 700 150 800 200 700"/><polygon class="cls-2" points="100 800 100 700 150 800 100 800"/><polygon class="cls-1" points="100 700 150 700 150 800 100 700"/><polygon class="cls-1" points="200 600 200 700 250 600 200 600"/><polygon class="cls-1" points="200 700 250 700 250 600 200 700"/><polygon class="cls-2" points="300 600 300 700 250 600 300 600"/><polygon class="cls-3" points="300 700 250 700 250 600 300 700"/><polygon class="cls-2" points="300 800 300 700 250 800 300 800"/><polygon class="cls-3" points="300 700 250 700 250 800 300 700"/><polygon class="cls-2" points="200 800 200 700 250 800 200 800"/><polygon class="cls-1" points="200 700 250 700 250 800 200 700"/><polygon class="cls-2" points="300 600 300 700 350 600 300 600"/><polygon class="cls-1" points="300 700 350 700 350 600 300 700"/><polygon class="cls-3" points="400 600 400 700 350 600 400 600"/><polygon class="cls-3" points="400 700 350 700 350 600 400 700"/><polygon class="cls-3" points="400 800 400 700 350 800 400 800"/><polygon class="cls-1" points="400 700 350 700 350 800 400 700"/><polygon class="cls-1" points="300 800 300 700 350 800 300 800"/><polygon class="cls-2" points="300 700 350 700 350 800 300 700"/><polygon class="cls-2" points="400 600 400 700 450 600 400 600"/><polygon class="cls-3" points="400 700 450 700 450 600 400 700"/><polygon class="cls-3" points="500 600 500 700 450 600 500 600"/><polygon class="cls-1" points="500 700 450 700 450 600 500 700"/><polygon class="cls-1" points="500 800 500 700 450 800 500 800"/><polygon class="cls-3" points="500 700 450 700 450 800 500 700"/><polygon class="cls-1" points="400 800 400 700 450 800 400 800"/><polygon class="cls-2" points="400 700 450 700 450 800 400 700"/><polygon class="cls-1" points="500 600 500 700 550 600 500 600"/><polygon class="cls-3" points="500 700 550 700 550 600 500 700"/><polygon class="cls-1" points="600 600 600 700 550 600 600 600"/><polygon class="cls-2" points="600 700 550 700 550 600 600 700"/><polygon class="cls-3" points="600 800 600 700 550 800 600 800"/><polygon class="cls-1" points="600 700 550 700 550 800 600 700"/><polygon class="cls-2" points="500 800 500 700 550 800 500 800"/><polygon class="cls-1" points="500 700 550 700 550 800 500 700"/><polygon class="cls-3" points="0 800 0 900 50 800 0 800"/><polygon class="cls-1" points="0 900 50 900 50 800 0 900"/><polygon class="cls-2" points="100 800 100 900 50 800 100 800"/><polygon class="cls-2" points="100 900 50 900 50 800 100 900"/><polygon class="cls-2" points="100 1000 100 900 50 1000 100 1000"/><polygon class="cls-1" points="100 900 50 900 50 1000 100 900"/><polygon class="cls-1" points="0 1000 0 900 50 1000 0 1000"/><polygon class="cls-3" points="0 900 50 900 50 1000 0 900"/><polygon class="cls-3" points="100 800 100 900 150 800 100 800"/><polygon class="cls-2" points="100 900 150 900 150 800 100 900"/><polygon class="cls-2" points="200 800 200 900 150 800 200 800"/><polygon class="cls-1" points="200 900 150 900 150 800 200 900"/><polygon class="cls-1" points="200 1000 200 900 150 1000 200 1000"/><polygon class="cls-3" points="200 900 150 900 150 1000 200 900"/><polygon class="cls-3" points="100 1000 100 900 150 1000 100 1000"/><polygon class="cls-1" points="100 900 150 900 150 1000 100 900"/><polygon class="cls-1" points="200 800 200 900 250 800 200 800"/><polygon class="cls-3" points="200 900 250 900 250 800 200 900"/><polygon class="cls-2" points="300 800 300 900 250 800 300 800"/><polygon class="cls-3" points="300 900 250 900 250 800 300 900"/><polygon class="cls-1" points="300 1000 300 900 250 1000 300 1000"/><polygon class="cls-3" points="300 900 250 900 250 1000 300 900"/><polygon class="cls-1" points="200 1000 200 900 250 1000 200 1000"/><polygon class="cls-2" points="200 900 250 900 250 1000 200 900"/><polygon class="cls-3" points="300 800 300 900 350 800 300 800"/><polygon class="cls-1" points="300 900 350 900 350 800 300 900"/><polygon class="cls-2" points="400 800 400 900 350 800 400 800"/><polygon class="cls-3" points="400 900 350 900 350 800 400 900"/><polygon class="cls-1" points="400 1000 400 900 350 1000 400 1000"/><polygon class="cls-2" points="400 900 350 900 350 1000 400 900"/><polygon class="cls-2" points="300 1000 300 900 350 1000 300 1000"/><polygon class="cls-3" points="300 900 350 900 350 1000 300 900"/><polygon class="cls-1" points="400 800 400 900 450 800 400 800"/><polygon class="cls-2" points="400 900 450 900 450 800 400 900"/><polygon class="cls-3" points="500 800 500 900 450 800 500 800"/><polygon class="cls-1" points="500 900 450 900 450 800 500 900"/><polygon class="cls-3" points="500 1000 500 900 450 1000 500 1000"/><polygon class="cls-1" points="500 900 450 900 450 1000 500 900"/><polygon class="cls-1" points="400 1000 400 900 450 1000 400 1000"/><polygon class="cls-3" points="400 900 450 900 450 1000 400 900"/><polygon class="cls-2" points="500 800 500 900 550 800 500 800"/><polygon class="cls-1" points="500 900 550 900 550 800 500 900"/><polygon class="cls-2" points="600 800 600 900 550 800 600 800"/><polygon class="cls-1" points="600 900 550 900 550 800 600 900"/><polygon class="cls-2" points="600 1000 600 900 550 1000 600 1000"/><polygon class="cls-2" points="600 900 550 900 550 1000 600 900"/><polygon class="cls-2" points="500 1000 500 900 550 1000 500 1000"/><polygon class="cls-3" points="500 900 550 900 550 1000 500 900"/><polygon class="cls-1" points="0 1000 0 1100 50 1000 0 1000"/><polygon class="cls-3" points="0 1100 50 1100 50 1000 0 1100"/><polygon class="cls-1" points="100 1000 100 1100 50 1000 100 1000"/><polygon class="cls-2" points="100 1100 50 1100 50 1000 100 1100"/><polygon class="cls-3" points="100 1200 100 1100 50 1200 100 1200"/><polygon class="cls-1" points="100 1100 50 1100 50 1200 100 1100"/><polygon class="cls-3" points="0 1200 0 1100 50 1200 0 1200"/><polygon class="cls-2" points="0 1100 50 1100 50 1200 0 1100"/><polygon class="cls-3" points="100 1000 100 1100 150 1000 100 1000"/><polygon class="cls-1" points="100 1100 150 1100 150 1000 100 1100"/><polygon class="cls-2" points="200 1000 200 1100 150 1000 200 1000"/><polygon class="cls-2" points="200 1100 150 1100 150 1000 200 1100"/><polygon class="cls-1" points="200 1200 200 1100 150 1200 200 1200"/><polygon class="cls-3" points="200 1100 150 1100 150 1200 200 1100"/><polygon class="cls-1" points="100 1200 100 1100 150 1200 100 1200"/><polygon class="cls-2" points="100 1100 150 1100 150 1200 100 1100"/><polygon class="cls-2" points="200 1000 200 1100 250 1000 200 1000"/><polygon class="cls-1" points="200 1100 250 1100 250 1000 200 1100"/><polygon class="cls-2" points="300 1000 300 1100 250 1000 300 1000"/><polygon class="cls-3" points="300 1100 250 1100 250 1000 300 1100"/><polygon class="cls-2" points="300 1200 300 1100 250 1200 300 1200"/><polygon class="cls-3" points="300 1100 250 1100 250 1200 300 1100"/><polygon class="cls-3" points="200 1200 200 1100 250 1200 200 1200"/><polygon class="cls-1" points="200 1100 250 1100 250 1200 200 1100"/><polygon class="cls-1" points="300 1000 300 1100 350 1000 300 1000"/><polygon class="cls-1" points="300 1100 350 1100 350 1000 300 1100"/><polygon class="cls-3" points="400 1000 400 1100 350 1000 400 1000"/><polygon class="cls-2" points="400 1100 350 1100 350 1000 400 1100"/><polygon class="cls-1" points="400 1200 400 1100 350 1200 400 1200"/><polygon class="cls-1" points="400 1100 350 1100 350 1200 400 1100"/><polygon class="cls-1" points="300 1200 300 1100 350 1200 300 1200"/><polygon class="cls-3" points="300 1100 350 1100 350 1200 300 1100"/><polygon class="cls-1" points="400 1000 400 1100 450 1000 400 1000"/><polygon class="cls-2" points="400 1100 450 1100 450 1000 400 1100"/><polygon class="cls-3" points="500 1000 500 1100 450 1000 500 1000"/><polygon class="cls-1" points="500 1100 450 1100 450 1000 500 1100"/><polygon class="cls-1" points="500 1200 500 1100 450 1200 500 1200"/><polygon class="cls-2" points="500 1100 450 1100 450 1200 500 1100"/><polygon class="cls-3" points="400 1200 400 1100 450 1200 400 1200"/><polygon class="cls-1" points="400 1100 450 1100 450 1200 400 1100"/><polygon class="cls-1" points="500 1000 500 1100 550 1000 500 1000"/><polygon class="cls-2" points="500 1100 550 1100 550 1000 500 1100"/><polygon class="cls-1" points="600 1000 600 1100 550 1000 600 1000"/><polygon class="cls-1" points="600 1100 550 1100 550 1000 600 1100"/><polygon class="cls-3" points="600 1200 600 1100 550 1200 600 1200"/><polygon class="cls-2" points="600 1100 550 1100 550 1200 600 1100"/><polygon class="cls-3" points="500 1200 500 1100 550 1200 500 1200"/><polygon class="cls-1" points="500 1100 550 1100 550 1200 500 1100"/></g></g></svg>