<svg xmlns="http://www.w3.org/2000/svg" viewBox="0 0 600 600"><defs><style>.cls-1{fill:#0d2331;}.cls-2{fill:#f2ede4;}.cls-3{fill:#c21d57;}</style></defs><title>Middel 2</title><g id="Laag_2" data-name="Laag 2"><g id="Back"><polygon class="cls-1" points="0 0 0 100 50 0 0 0"/><polygon class="cls-2" points="0 100 50 100 50 0 0 100"/><polygon class="cls-1" points="100 0 100 100 50 0 100 0"/><polygon class="cls-3" points="100 100 50 100 50 0 100 100"/><polygon class="cls-1" points="100 200 100 100 50 200 100 200"/><polygon class="cls-2" points="100 100 50 100 50 200 100 100"/><polygon class="cls-2" points="0 200 0 100 50 200 0 200"/><polygon class="cls-1" points="0 100 50 100 50 200 0 100"/><polygon class="cls-1" points="100 0 100 100 150 0 100 0"/><polygon class="cls-3" points="100 100 150 100 150 0 100 100"/><polygon class="cls-2" points="200 0 200 100 150 0 200 0"/><polygon class="cls-1" points="200 100 150 100 150 0 200 100"/><polygon class="cls-3" points="200 200 200 100 150 200 200 200"/><polygon class="cls-3" points="200 100 150 100 150 200 200 100"/><polygon class="cls-2" points="100 200 100 100 150 200 100 200"/><polygon class="cls-1" points="100 100 150 100 150 200 100 100"/><polygon class="cls-1" points="200 0 200 100 250 0 200 0"/><polygon class="cls-1" points="200 100 250 100 250 0 200 100"/><polygon class="cls-2" points="300 0 300 100 250 0 300 0"/><polygon class="cls-3" points="300 100 250 100 250 0 300 100"/><polygon class="cls-2" points="300 200 300 100 250 200 300 200"/><polygon class="cls-3" points="300 100 250 100 250 200 300 100"/><polygon class="cls-2" points="200 200 200 100 250 200 200 200"/><polygon class="cls-1" points="200 100 250 100 250 200 200 100"/><polygon class="cls-2" points="300 0 300 100 350 0 300 0"/><polygon class="cls-1" points="300 100 350 100 350 0 300 100"/><polygon class="cls-3" points="400 0 400 100 350 0 400 0"/><polygon class="cls-3" points="400 100 350 100 350 0 400 100"/><polygon class="cls-3" points="400 200 400 100 350 200 400 200"/><polygon class="cls-1" points="400 100 350 100 350 200 400 100"/><polygon class="cls-1" points="300 200 300 100 350 200 300 200"/><polygon class="cls-2" points="300 100 350 100 350 200 300 100"/><polygon class="cls-2" points="400 0 400 100 450 0 400 0"/><polygon class="cls-3" points="400 100 450 100 450 0 400 100"/><polygon class="cls-3" points="500 0 500 100 450 0 500 0"/><polygon class="cls-1" points="500 100 450 100 450 0 500 100"/><polygon class="cls-1" points="500 200 500 100 450 200 500 200"/><polygon class="cls-3" points="500 100 450 100 450 200 500 100"/><polygon class="cls-1" points="400 200 400 100 450 200 400 200"/><polygon class="cls-2" points="400 100 450 100 450 200 400 100"/><polygon class="cls-1" points="500 0 500 100 550 0 500 0"/><polygon class="cls-3" points="500 100 550 100 550 0 500 100"/><polygon class="cls-1" points="600 0 600 100 550 0 600 0"/><polygon class="cls-2" points="600 100 550 100 550 0 600 100"/><polygon class="cls-3" points="600 200 600 100 550 200 600 200"/><polygon class="cls-1" points="600 100 550 100 550 200 600 100"/><polygon class="cls-2" points="500 200 500 100 550 200 500 200"/><polygon class="cls-1" points="500 100 550 100 550 200 500 100"/><polygon class="cls-3" points="0 200 0 300 50 200 0 200"/><polygon class="cls-1" points="0 300 50 300 50 200 0 300"/><polygon class="cls-2" points="100 200 100 300 50 200 100 200"/><polygon class="cls-2" points="100 300 50 300 50 200 100 300"/><polygon class="cls-2" points="100 400 100 300 50 400 100 400"/><polygon class="cls-1" points="100 300 50 300 50 400 100 300"/><polygon class="cls-1" points="0 400 0 300 50 400 0 400"/><polygon class="cls-3" points="0 300 50 300 50 400 0 300"/><polygon class="cls-3" points="100 200 100 300 150 200 100 200"/><polygon class="cls-2" points="100 300 150 300 150 200 100 300"/><polygon class="cls-2" points="200 200 200 300 150 200 200 200"/><polygon class="cls-1" points="200 300 150 300 150 200 200 300"/><polygon class="cls-1" points="200 400 200 300 150 400 200 400"/><polygon class="cls-3" points="200 300 150 300 150 400 200 300"/><polygon class="cls-3" points="100 400 100 300 150 400 100 400"/><polygon class="cls-1" points="100 300 150 300 150 400 100 300"/><polygon class="cls-1" points="200 200 200 300 250 200 200 200"/><polygon class="cls-3" points="200 300 250 300 250 200 200 300"/><polygon class="cls-2" points="300 200 300 300 250 200 300 200"/><polygon class="cls-3" points="300 300 250 300 250 200 300 300"/><polygon class="cls-1" points="300 400 300 300 250 400 300 400"/><polygon class="cls-3" points="300 300 250 300 250 400 300 300"/><polygon class="cls-1" points="200 400 200 300 250 400 200 400"/><polygon class="cls-2" points="200 300 250 300 250 400 200 300"/><polygon class="cls-3" points="300 200 300 300 350 200 300 200"/><polygon class="cls-1" points="300 300 350 300 350 200 300 300"/><polygon class="cls-2" points="400 200 400 300 350 200 400 200"/><polygon class="cls-3" points="400 300 350 300 350 200 400 300"/><polygon class="cls-1" points="400 400 400 300 350 400 400 400"/><polygon class="cls-2" points="400 300 350 300 350 400 400 300"/><polygon class="cls-2" points="300 400 300 300 350 400 300 400"/><polygon class="cls-3" points="300 300 350 300 350 400 300 300"/><polygon class="cls-1" points="400 200 400 300 450 200 400 200"/><polygon class="cls-2" points="400 300 450 300 450 200 400 300"/><polygon class="cls-3" points="500 200 500 300 450 200 500 200"/><polygon class="cls-1" points="500 300 450 300 450 200 500 300"/><polygon class="cls-3" points="500 400 500 300 450 400 500 400"/><polygon class="cls-1" points="500 300 450 300 450 400 500 300"/><polygon class="cls-1" points="400 400 400 300 450 400 400 400"/><polygon class="cls-3" points="400 300 450 300 450 400 400 300"/><polygon class="cls-2" points="500 200 500 300 550 200 500 200"/><polygon class="cls-1" points="500 300 550 300 550 200 500 300"/><polygon class="cls-2" points="600 200 600 300 550 200 600 200"/><polygon class="cls-1" points="600 300 550 300 550 200 600 300"/><polygon class="cls-2" points="600 400 600 300 550 400 600 400"/><polygon class="cls-2" points="600 300 550 300 550 400 600 300"/><polygon class="cls-2" points="500 400 500 300 550 400 500 400"/><polygon class="cls-3" points="500 300 550 300 550 400 500 300"/><polygon class="cls-1" points="0 400 0 500 50 400 0 400"/><polygon class="cls-3" points="0 500 50 500 50 400 0 500"/><polygon class="cls-1" points="100 400 100 500 50 400 100 400"/><polygon class="cls-2" points="100 500 50 500 50 400 100 500"/><polygon class="cls-3" points="100 600 100 500 50 600 100 600"/><polygon class="cls-1" points="100 500 50 500 50 600 100 500"/><polygon class="cls-3" points="0 600 0 500 50 600 0 600"/><polygon class="cls-2" points="0 500 50 500 50 600 0 500"/><polygon class="cls-3" points="100 400 100 500 150 400 100 400"/><polygon class="cls-1" points="100 500 150 500 150 400 100 500"/><polygon class="cls-2" points="200 400 200 500 150 400 200 400"/><polygon class="cls-2" points="200 500 150 500 150 400 200 500"/><polygon class="cls-1" points="200 600 200 500 150 600 200 600"/><polygon class="cls-3" points="200 500 150 500 150 600 200 500"/><polygon class="cls-1" points="100 600 100 500 150 600 100 600"/><polygon class="cls-2" points="100 500 150 500 150 600 100 500"/><polygon class="cls-2" points="200 400 200 500 250 400 200 400"/><polygon class="cls-1" points="200 500 250 500 250 400 200 500"/><polygon class="cls-2" points="300 400 300 500 250 400 300 400"/><polygon class="cls-3" points="300 500 250 500 250 400 300 500"/><polygon class="cls-2" points="300 600 300 500 250 600 300 600"/><polygon class="cls-3" points="300 500 250 500 250 600 300 500"/><polygon class="cls-3" points="200 600 200 500 250 600 200 600"/><polygon class="cls-1" points="200 500 250 500 250 600 200 500"/><polygon class="cls-1" points="300 400 300 500 350 400 300 400"/><polygon class="cls-1" points="300 500 350 500 350 400 300 500"/><polygon class="cls-3" points="400 400 400 500 350 400 400 400"/><polygon class="cls-2" points="400 500 350 500 350 400 400 500"/><polygon class="cls-1" points="400 600 400 500 350 600 400 600"/><polygon class="cls-1" points="400 500 350 500 350 600 400 500"/><polygon class="cls-1" points="300 600 300 500 350 600 300 600"/><polygon class="cls-3" points="300 500 350 500 350 600 300 500"/><polygon class="cls-1" points="400 400 400 500 450 400 400 400"/><polygon class="cls-2" points="400 500 450 500 450 400 400 500"/><polygon class="cls-3" points="500 400 500 500 450 400 500 400"/><polygon class="cls-1" points="500 500 450 500 450 400 500 500"/><polygon class="cls-1" points="500 600 500 500 450 600 500 600"/><polygon class="cls-2" points="500 500 450 500 450 600 500 500"/><polygon class="cls-3" points="400 600 400 500 450 600 400 600"/><polygon class="cls-1" points="400 500 450 500 450 600 400 500"/><polygon class="cls-1" points="500 400 500 500 550 400 500 400"/><polygon class="cls-2" points="500 500 550 500 550 400 500 500"/><polygon class="cls-1" points="600 400 600 500 550 400 600 400"/><polygon class="cls-1" points="600 500 550 500 550 400 600 500"/><polygon class="cls-3" points="600 600 600 500 550 600 600 600"/><polygon class="cls-2" points="600 500 550 500 550 600 600 500"/><polygon class="cls-3" points="500 600 500 500 550 600 500 600"/><polygon class="cls-1" points="500 500 550 500 550 600 500 500"/></g></g></svg>